<svg width="22" height="20" viewBox="0 0 22 20" fill="none" xmlns="http://www.w3.org/2000/svg">
<path d="M10.0848 0.85958C10.3846 -0.0606967 11.6866 -0.0606959 11.9864 0.859581L13.7375 6.23398C13.8716 6.64561 14.2554 6.92418 14.6883 6.92418H20.3491C21.3185 6.92418 21.7208 8.16521 20.9358 8.73398L16.3609 12.0486C16.0094 12.3033 15.8624 12.7555 15.9968 13.1682L17.7454 18.5349C18.0454 19.4557 16.9921 20.2227 16.2079 19.6544L11.6223 16.3321C11.2723 16.0784 10.7989 16.0784 10.4489 16.3321L5.86333 19.6544C5.07907 20.2227 4.02578 19.4557 4.32581 18.5348L6.07438 13.1682C6.20883 12.7555 6.06175 12.3033 5.71029 12.0486L1.13542 8.73398C0.350414 8.16521 0.752745 6.92418 1.72214 6.92418H7.3829C7.81582 6.92418 8.19958 6.64561 8.3337 6.23398L10.0848 0.85958Z" fill="#070707"/>
</svg>
